<mxfile host="app.diagrams.net" modified="2024-02-04T12:30:27.213Z" agent="Mozilla/5.0 (Macintosh; Intel Mac OS X 10_15_7) AppleWebKit/537.36 (KHTML, like Gecko) Chrome/120.0.0.0 Safari/537.36" version="21.6.5" etag="3wmougfEGHh_dHck-kcT" type="github">
  <diagram name="第 1 页" id="1QEYK5VZzdu5lnSwz0cZ">
    <mxGraphModel>
      <root>
        <mxCell id="0" />
        <mxCell id="1" parent="0" />
      </root>
    </mxGraphModel>
  </diagram>
</mxfile>
